<?xml version="1.0" encoding="utf-8"?>
<!-- Generator: Adobe Illustrator 16.0.0, SVG Export Plug-In . SVG Version: 6.00 Build 0)  -->
<!DOCTYPE svg PUBLIC "-//W3C//DTD SVG 1.1//EN" "http://www.w3.org/Graphics/SVG/1.1/DTD/svg11.dtd">
<svg version="1.1" id="Layer_1" xmlns="http://www.w3.org/2000/svg" xmlns:xlink="http://www.w3.org/1999/xlink" x="0px" y="0px"
	 width="100px" height="100px" viewBox="0 0 100 100" enable-background="new 0 0 100 100" xml:space="preserve">
<path fill="#FFFFFF" d="M89.355,43.326L72.021,25.323c0,0-6.843-5.474-13.002,0c-6.155,5.475-4.959,11.803-4.959,11.803h-8.594
	c0,0,1.198-6.328-4.959-11.803c-6.159-5.474-13.002,0-13.002,0L10.17,43.326c-5.115,3.742-8.451,9.772-8.451,16.594
	c0,11.36,9.209,20.568,20.569,20.568c8.781,0,16.255-5.513,19.207-13.255h1.963h12.61h1.964c2.95,7.742,10.424,13.255,19.206,13.255
	c11.359,0,20.57-9.208,20.57-20.568C97.809,53.098,94.472,47.067,89.355,43.326z M23.242,74.604
	c-8.315,0-15.057-6.739-15.057-15.056s6.742-15.057,15.057-15.057c8.316,0,15.058,6.741,15.058,15.057S31.558,74.604,23.242,74.604z
	 M76.617,74.604c-8.315,0-15.056-6.739-15.056-15.056s6.74-15.057,15.056-15.057c8.316,0,15.058,6.741,15.058,15.057
	S84.934,74.604,76.617,74.604z"/>
</svg>
