<?xml version="1.0" encoding="utf-8"?>
<!-- Generator: Adobe Illustrator 16.0.3, SVG Export Plug-In . SVG Version: 6.00 Build 0)  -->
<!DOCTYPE svg PUBLIC "-//W3C//DTD SVG 1.1//EN" "http://www.w3.org/Graphics/SVG/1.1/DTD/svg11.dtd">
<svg version="1.1" id="Layer_1" xmlns="http://www.w3.org/2000/svg" xmlns:xlink="http://www.w3.org/1999/xlink" x="0px" y="0px"
	 width="236.193px" height="56.887px" viewBox="0 0 236.193 56.887" enable-background="new 0 0 236.193 56.887"
	 xml:space="preserve">
<g>
	<g>
		<g>
			<rect x="64.823" y="9.479" fill="#FFFFFF" width="2.39" height="4.03"/>
			<rect x="64.823" y="21.293" fill="#FFFFFF" width="2.39" height="25.752"/>
			<path fill="#FFFFFF" d="M94.875,47.18h-2.39V29.353c0-3.484-3.481-5.326-6.008-5.326h-0.344c-2.46,0-5.872,1.775-6.008,5.055
				V47.18h-2.394V25.323c0-0.546-1.022-1.435-1.979-2.252l1.569-1.844c1.094,0.955,2.119,1.844,2.597,3.003
				c0.207-0.204,0.342-0.409,0.614-0.614c1.572-1.23,3.622-1.979,5.601-1.979h0.344c1.979,0,4.029,0.749,5.599,1.979
				c1.844,1.505,2.799,3.483,2.799,5.736V47.18z"/>
			<path fill="#FFFFFF" d="M104.781,47.045h-2.392V9.479h2.392v23.768h3.48l8.744-12.839l1.98,1.363l-7.854,11.546
				c1.365,0.202,2.596,1.024,3.418,2.183v0.139l6.279,11.474h-2.73l-5.602-10.314c-0.476-0.68-1.297-1.159-2.117-1.159h-5.599
				V47.045z"/>
			<rect x="127.659" y="9.479" fill="#FFFFFF" width="2.395" height="4.03"/>
			<rect x="127.659" y="21.293" fill="#FFFFFF" width="2.395" height="25.752"/>
			<path fill="#FFFFFF" d="M157.714,47.18h-2.388V29.353c0-3.484-3.486-5.326-6.014-5.326h-0.339c-2.46,0-5.879,1.775-6.014,5.055
				V47.18h-2.391V25.323c0-0.546-1.022-1.435-1.98-2.252l1.573-1.844c1.092,0.955,2.116,1.844,2.595,3.003
				c0.203-0.204,0.338-0.409,0.613-0.614c1.571-1.23,3.625-1.979,5.604-1.979h0.339c1.98,0,4.029,0.749,5.605,1.979
				c1.841,1.505,2.796,3.483,2.796,5.736V47.18z"/>
			<path fill="#FFFFFF" d="M167.073,44.928c-1.575-1.229-2.667-2.938-3.074-4.715c-0.617-3.275-0.617-8.605,0-11.882
				c0.407-1.848,1.499-3.483,3.074-4.781c1.641-1.229,3.55-1.913,5.529-1.913h1.228c1.914,0,3.83,0.684,5.465,1.913
				c0.207,0.203,0.48,0.408,0.686,0.612V9.479h2.389v33.126c0,0.615,1.024,1.438,1.982,2.25l-1.505,1.849
				c-1.025-0.819-2.047-1.641-2.527-2.661c-0.339,0.336-0.681,0.611-1.024,0.886c-1.635,1.23-3.551,1.91-5.465,1.91h-1.228
				C170.623,46.838,168.714,46.158,167.073,44.928z M179.98,40.077V28.538c-0.686-2.462-3.413-4.512-6.15-4.512h-1.228
				c-2.868,0-5.738,2.186-6.217,4.781c-0.615,2.937-0.615,7.924,0,10.926c0.479,2.599,3.349,4.715,6.217,4.715h1.228
				C176.567,44.448,179.295,42.535,179.98,40.077z"/>
			<path fill="#FFFFFF" d="M199.244,46.977c-1.917,0-3.896-0.684-5.537-1.914c-1.568-1.298-2.662-2.936-3.072-4.779
				c-0.611-3.277-0.611-8.609,0-11.952c0.41-1.777,1.504-3.483,3.072-4.715c1.642-1.296,3.62-1.979,5.537-1.979h1.228
				c1.98,0,3.891,0.684,5.532,1.979c1.641,1.231,2.729,2.938,3.072,4.715c0.273,1.432,0.408,3.276,0.479,5.259v1.091l-16.938,1.366
				c0.068,1.437,0.204,2.733,0.409,3.757c0.476,2.596,3.344,4.78,6.217,4.78h1.228c2.868,0,5.735-2.185,6.215-4.78l2.39,0.479
				c-0.343,1.844-1.432,3.481-3.072,4.779c-1.642,1.23-3.552,1.914-5.532,1.914H199.244z M199.244,24.026
				c-2.873,0-5.741,2.186-6.217,4.781c-0.274,1.363-0.409,3.071-0.479,4.851l14.549-1.163c-0.067-1.366-0.202-2.663-0.41-3.688
				c-0.479-2.596-3.347-4.781-6.215-4.781H199.244z"/>
			<path fill="#FFFFFF" d="M218.915,44.928c-1.571-1.229-2.667-2.938-3.077-4.715c-0.61-3.275-0.61-8.605,0-11.882
				c0.41-1.848,1.506-3.483,3.077-4.781c1.638-1.229,3.549-1.913,5.531-1.913h1.229c1.909,0,3.823,0.684,5.463,1.913
				c0.205,0.203,0.476,0.408,0.686,0.612V9.479h2.389v33.126c0,0.615,1.022,1.438,1.98,2.25l-1.503,1.849
				c-1.022-0.819-2.049-1.641-2.522-2.661c-0.344,0.336-0.688,0.611-1.029,0.886c-1.64,1.23-3.554,1.91-5.463,1.91h-1.229
				C222.464,46.838,220.553,46.158,218.915,44.928z M231.824,40.077V28.538c-0.686-2.462-3.419-4.512-6.148-4.512h-1.229
				c-2.872,0-5.738,2.186-6.218,4.781c-0.611,2.937-0.611,7.924,0,10.926c0.479,2.599,3.346,4.715,6.218,4.715h1.229
				C228.405,44.448,231.139,42.535,231.824,40.077z"/>
		</g>
	</g>
	<g>
		<path fill="#FFFFFF" d="M19.436,10.876c-0.203-0.314-0.458-0.623-0.739-0.899c-2.452-2.452-6.424-2.452-8.879,0
			c-2.456,2.454-2.456,6.427,0,8.882c0.292,0.291,0.61,0.559,0.946,0.777c-0.922-0.326-1.783-0.863-2.515-1.59
			c-2.66-2.664-2.66-6.975-0.014-9.625c2.664-2.66,6.978-2.66,9.634,0C18.59,9.138,19.114,9.977,19.436,10.876z"/>
		<path fill="#FFFFFF" d="M19.815,11.494c1.251,2.368,0.875,5.368-1.119,7.364c-1.834,1.847-4.53,2.295-6.803,1.385
			c-0.383-0.158-0.765-0.363-1.129-0.607c2.394,0.863,5.188,0.328,7.105-1.59c1.946-1.947,2.471-4.764,1.567-7.17
			C19.583,11.082,19.707,11.29,19.815,11.494z"/>
		<path fill="#FFFFFF" d="M9.67,22.394c2.903,0.545,5.103,3.098,5.103,6.16c0,3.049-2.186,5.602-5.065,6.16
			c2.307-1.081,3.912-3.429,3.912-6.146C13.619,25.818,12.001,23.463,9.67,22.394z"/>
		<path fill="#FFFFFF" d="M9.708,34.714c-0.086,0.047-0.172,0.087-0.255,0.119c-0.814,0.342-1.704,0.535-2.65,0.535
			C3.049,35.368,0,32.321,0,28.567c0-3.77,3.049-6.817,6.802-6.817c0.706,0,1.386,0.11,2.031,0.304
			c0.292,0.098,0.572,0.207,0.837,0.34c-0.377-0.086-0.775-0.119-1.179-0.119c-3.462,0-6.278,2.814-6.278,6.279
			c0,3.464,2.816,6.279,6.278,6.279C8.905,34.833,9.321,34.801,9.708,34.714z"/>
		<path fill="#FFFFFF" d="M19.635,46.109c0.862-2.403,0.326-5.188-1.594-7.107c-1.943-1.932-4.75-2.456-7.167-1.556
			c0.546-0.376,1.141-0.657,1.75-0.839c2.138-0.632,4.543-0.109,6.231,1.581C21.018,40.339,21.264,43.681,19.635,46.109z"/>
		<path fill="#FFFFFF" d="M19.635,46.109c-0.027,0.098-0.063,0.182-0.098,0.28c-0.342,0.814-0.826,1.576-1.496,2.245
			c-2.66,2.663-6.971,2.663-9.636,0c-2.643-2.658-2.643-6.974,0-9.619c0.733-0.729,1.57-1.255,2.469-1.569
			c-0.314,0.208-0.622,0.461-0.899,0.742c-2.457,2.44-2.457,6.427,0,8.869c2.454,2.451,6.426,2.451,8.881,0
			C19.146,46.765,19.415,46.45,19.635,46.109z"/>
		<path fill="#FFFFFF" d="M34.063,45.392c0.31,0.548,0.526,1.144,0.649,1.774c-1.079-2.296-3.431-3.9-6.151-3.9
			c-2.746,0-5.104,1.617-6.171,3.938c0.04-0.234,0.094-0.463,0.161-0.681c0.801-2.565,3.18-4.414,6-4.426
			C30.931,42.109,33.007,43.435,34.063,45.392z"/>
		<path fill="#FFFFFF" d="M34.713,47.166c0.422,0.875,0.653,1.858,0.653,2.905c0,3.764-3.047,6.815-6.804,6.815
			c-3.766,0-6.814-3.052-6.814-6.815c0-1.023,0.23-1.994,0.643-2.867c-0.083,0.389-0.122,0.774-0.122,1.18
			c0,3.472,2.808,6.275,6.283,6.275c3.464,0,6.282-2.804,6.282-6.275C34.833,47.966,34.795,47.556,34.713,47.166z"/>
		<path fill="#FFFFFF" d="M48.633,38.831c2.663,2.662,2.663,6.973,0,9.636c-2.66,2.66-6.976,2.66-9.633,0
			c-0.717-0.718-1.251-1.568-1.579-2.478c0.218,0.324,0.475,0.628,0.766,0.921c2.438,2.443,6.428,2.443,8.87,0
			c2.451-2.453,2.451-6.439,0-8.881c-0.306-0.301-0.634-0.57-0.985-0.801C47.006,37.544,47.893,38.091,48.633,38.831z"/>
		<path fill="#FFFFFF" d="M46.072,37.229c-2.394-0.841-5.165-0.306-7.072,1.603c-1.937,1.935-2.455,4.742-1.579,7.158
			c-0.134-0.194-0.256-0.404-0.358-0.598c-1.247-2.365-0.871-5.369,1.111-7.362c1.238-1.227,2.841-1.848,4.446-1.848
			C43.823,36.182,45.025,36.534,46.072,37.229z"/>
		<path fill="#FFFFFF" d="M47.115,22.188c-2.272,1.091-3.849,3.424-3.849,6.133c0,2.733,1.615,5.091,3.936,6.162
			c-0.853-0.143-1.642-0.486-2.335-0.948c-1.663-1.132-2.755-3.038-2.755-5.2c0-1.957,0.885-3.695,2.282-4.848
			C45.159,22.843,46.092,22.394,47.115,22.188z"/>
		<path fill="#FFFFFF" d="M50.066,21.507c3.767,0,6.816,3.051,6.816,6.814c0,3.754-3.05,6.803-6.816,6.803
			c-1.021,0-1.989-0.229-2.864-0.641c0.388,0.082,0.775,0.119,1.175,0.119c3.477,0,6.283-2.805,6.283-6.268
			c0-3.475-2.806-6.281-6.283-6.281c-0.425,0-0.853,0.049-1.248,0.135C48.015,21.75,49.009,21.507,50.066,21.507z"/>
		<path fill="#FFFFFF" d="M48.463,8.25c2.662,2.649,2.662,6.964,0,9.622c-0.716,0.72-1.566,1.252-2.477,1.58
			c0.316-0.219,0.631-0.462,0.911-0.752c2.457-2.453,2.457-6.426,0-8.881c-2.444-2.441-6.426-2.459-8.867,0
			c-0.306,0.304-0.573,0.632-0.802,0.984c0.328-0.936,0.86-1.812,1.601-2.554C41.489,5.591,45.802,5.591,48.463,8.25z"/>
		<path fill="#FFFFFF" d="M38.828,17.872c1.933,1.934,4.741,2.467,7.158,1.58c-1.059,0.729-2.283,1.081-3.524,1.081
			c-1.603,0-3.204-0.604-4.432-1.833c-1.692-1.689-2.213-4.094-1.593-6.234c0.182-0.582,0.438-1.143,0.791-1.662
			C36.387,13.196,36.921,15.953,38.828,17.872z"/>
		<path fill="#FFFFFF" d="M34.481,9.671c-0.146,0.854-0.486,1.643-0.947,2.334c-1.132,1.664-3.039,2.771-5.2,2.771
			c-2.394,0-4.459-1.338-5.528-3.297c-0.28-0.518-0.498-1.102-0.62-1.721c1.091,2.283,3.423,3.861,6.134,3.861
			C31.055,13.62,33.412,12.005,34.481,9.671z"/>
		<path fill="#FFFFFF" d="M35.123,6.809c0,1.018-0.229,1.989-0.642,2.862c0.082-0.374,0.12-0.774,0.12-1.178
			c0-3.461-2.807-6.28-6.267-6.28c-3.478,0-6.286,2.819-6.286,6.28c0,0.429,0.054,0.852,0.138,1.25
			c-0.438-0.883-0.68-1.883-0.68-2.935C21.506,3.05,24.554,0,28.32,0C32.074,0,35.123,3.05,35.123,6.809z"/>
	</g>
</g>
</svg>
