<?xml version="1.0" encoding="utf-8"?>
<!-- Generator: Adobe Illustrator 16.0.0, SVG Export Plug-In . SVG Version: 6.00 Build 0)  -->
<!DOCTYPE svg PUBLIC "-//W3C//DTD SVG 1.1//EN" "http://www.w3.org/Graphics/SVG/1.1/DTD/svg11.dtd">
<svg version="1.1" id="Layer_1" xmlns="http://www.w3.org/2000/svg" xmlns:xlink="http://www.w3.org/1999/xlink" x="0px" y="0px"
	 width="100px" height="100px" viewBox="0 0 100 100" enable-background="new 0 0 100 100" xml:space="preserve">
<path fill-rule="evenodd" clip-rule="evenodd" fill="#FEDB9A" d="M99.387,16.242l-0.16,0.035l-0.164-0.001
	c-0.728-0.787-0.715-1.58-0.02-2.379c0.114,0.011,0.229,0.019,0.344,0.025C99.387,14.695,99.387,15.469,99.387,16.242z"/>
<path fill-rule="evenodd" clip-rule="evenodd" fill="#FFFFFF" d="M55.798,72.949c-1.999-0.935-3.987-1.85-5.964-2.789
	c-2.912-1.384-2.918-1.396-1.55-4.344c7.152-15.409,14.321-30.811,21.445-46.233c0.528-1.143,0.954-1.548,2.251-0.921
	c6.605,3.196,13.243,6.327,19.906,9.399c1.305,0.601,1.506,1.171,0.899,2.467c-7.397,15.796-14.752,31.612-22.083,47.438
	c-0.499,1.079-0.942,1.494-2.144,0.88c-1.946-0.995-3.957-1.873-5.98-2.705c-1.524-0.627-1.948-1.31-1.143-3.002
	c4.538-9.529,8.945-19.122,13.363-28.709c0.32-0.693,1.236-1.559,0.529-2.208c-0.923-0.846-2.193-1.414-3.469-1.561
	c-0.731-0.084-0.816,0.889-1.073,1.437c-4.624,9.845-9.223,19.702-13.849,29.546C56.698,72.152,56.702,72.974,55.798,72.949z"/>
<path fill-rule="evenodd" clip-rule="evenodd" fill="#FFFFFF" d="M36.366,86.226c-0.002,2.705-0.046,5.411,0.012,8.114
	c0.023,1.114-0.238,1.597-1.485,1.592c-10.885-0.042-21.77-0.042-32.655,0c-1.246,0.005-1.509-0.473-1.485-1.589
	c0.058-2.704,0.013-5.41,0.009-8.115c6.8-0.033,13.601-0.088,20.401-0.092C26.231,86.132,31.298,86.193,36.366,86.226z"/>
<path fill-rule="evenodd" clip-rule="evenodd" fill="#FFFFFF" d="M99.043,13.897c0.006,0.792,0.013,1.586,0.02,2.379
	c-1.367,5.156-1.447,5.209-6.066,3.08c-5.829-2.688-11.634-5.43-17.476-8.09c-1.112-0.507-1.546-1.045-0.802-2.144
	c0.106-0.159,0.185-0.338,0.271-0.51c2.568-5.158,5.205-6.145,10.417-3.776c3.446,1.566,6.845,3.235,10.255,4.878
	C97.44,10.569,98.634,11.922,99.043,13.897z"/>
<path fill-rule="evenodd" clip-rule="evenodd" fill="#FFFFFF" d="M49.827,96.057c-1.798,0.087-2.96-0.716-3.375-2.354
	c-1.042-4.114-1.843-8.282-2.034-12.531c-0.091-2.035,1.014-2.959,3.03-2.743c0.628,0.067,1.276,0.233,1.848,0.499
	c3.961,1.842,7.938,3.652,11.841,5.612c2.649,1.33,2.812,3.59,0.364,5.23c-2.986,2.003-6.102,3.813-9.163,5.703
	C51.545,95.963,50.671,96.127,49.827,96.057z"/>
</svg>
