<?xml version="1.0" encoding="utf-8"?>
<!-- Generator: Adobe Illustrator 16.0.0, SVG Export Plug-In . SVG Version: 6.00 Build 0)  -->
<!DOCTYPE svg PUBLIC "-//W3C//DTD SVG 1.1//EN" "http://www.w3.org/Graphics/SVG/1.1/DTD/svg11.dtd">
<svg version="1.1" id="Layer_1" xmlns="http://www.w3.org/2000/svg" xmlns:xlink="http://www.w3.org/1999/xlink" x="0px" y="0px"
	 width="100px" height="100px" viewBox="0 0 100 100" enable-background="new 0 0 100 100" xml:space="preserve">
<g>
	<g>
		<g>
			<path fill="#FFFFFF" d="M65.967,47.22c-6.37,0-12.211,2.304-16.741,6.118l-6.091-5.875c1.333-2.521,2.095-5.385,2.095-8.429
				c0-2.672-0.597-5.2-1.641-7.484l6.588-4.918c2.238,1.552,4.947,2.469,7.874,2.469c7.632,0,13.841-6.209,13.841-13.843
				c0-7.632-6.209-13.842-13.841-13.842c-7.634,0-13.848,6.209-13.848,13.842c0,2.402,0.617,4.663,1.7,6.634l-5.919,4.421
				c-3.283-3.313-7.829-5.372-12.849-5.372c-9.978,0-18.095,8.118-18.095,18.093c0,9.979,8.117,18.094,18.095,18.094
				c4.634,0,8.854-1.766,12.058-4.64l5.702,5.502c-3.119,4.29-4.964,9.563-4.964,15.259c0,9.362,4.973,17.587,12.416,22.173
				c1.561,0.961,3.232,1.762,4.99,2.379c2.7,0.955,5.604,1.479,8.629,1.479c3.023,0,5.927-0.523,8.628-1.479
				c1.959-0.688,3.807-1.606,5.519-2.722c7.145-4.645,11.883-12.692,11.883-21.83C91.996,58.898,80.318,47.22,65.967,47.22z
				 M58.052,4.436c5.966,0,10.822,4.854,10.822,10.822c0,5.967-4.856,10.823-10.822,10.823c-5.969,0-10.825-4.856-10.825-10.823
				C47.227,9.29,52.083,4.436,58.052,4.436z M27.136,53.182c-7.8,0-14.147-6.347-14.147-14.147c0-7.798,6.347-14.144,14.147-14.144
				c7.799,0,14.145,6.346,14.145,14.144C41.281,46.835,34.936,53.182,27.136,53.182z M80.113,87.845
				c-3.665,3.554-8.65,5.754-14.146,5.754c-5.24,0-10.009-2.007-13.619-5.272c-4.123-3.727-6.733-9.096-6.733-15.076
				c0-11.223,9.129-20.35,20.352-20.35c11.22,0,20.35,9.127,20.35,20.35C86.316,78.974,83.93,84.145,80.113,87.845z"/>
		</g>
	</g>
</g>
<g>
	<path fill="#FFFFFF" d="M67.12,72.311c3.528-0.403,6.606-3.278,7.261-6.773c0.59-2.756-0.319-5.764-2.318-7.73
		c-1.766-1.815-4.368-2.739-6.893-2.505c-3.261,0.303-6.233,2.589-7.26,5.714c-1.04,2.876-0.353,6.304,1.732,8.539
		C61.474,71.639,64.382,72.713,67.12,72.311z"/>
	<path fill="#FFFFFF" d="M56.523,88.716c1.058,0.593,2.176,1.087,3.347,1.474c1.924,0.637,3.979,0.988,6.117,0.988
		c2.15,0,4.217-0.354,6.149-0.998c1.168-0.39,2.286-0.886,3.343-1.479c1.79-1.005,3.402-2.285,4.784-3.782
		c-0.002-2.282-0.006-4.563-0.019-6.843c-3.091-0.571-6.149-1.244-9.242-1.832c-1.714,2.52-8.318,2.571-9.983,0
		c-3.109,0.604-6.201,1.228-9.294,1.866c-0.006,2.272-0.006,4.546-0.006,6.817C53.107,86.427,54.729,87.712,56.523,88.716z"/>
</g>
<g>
	<path fill="#FFFFFF" d="M27.801,38.305c2.365-0.271,4.425-2.196,4.864-4.539c0.394-1.846-0.214-3.862-1.554-5.179
		c-1.183-1.217-2.928-1.836-4.618-1.679c-2.184,0.203-4.178,1.735-4.864,3.829c-0.699,1.926-0.237,4.223,1.16,5.721
		C24.016,37.854,25.965,38.575,27.801,38.305z"/>
	<path fill="#FFFFFF" d="M20.699,49.297c0.709,0.397,1.458,0.727,2.242,0.989c1.289,0.428,2.667,0.661,4.1,0.661
		c1.44,0,2.825-0.237,4.119-0.669c0.783-0.26,1.533-0.592,2.241-0.991c1.199-0.673,2.28-1.531,3.207-2.535
		c-0.002-1.529-0.005-3.057-0.013-4.584c-2.073-0.383-4.122-0.834-6.194-1.229c-1.149,1.69-5.575,1.723-6.689,0
		c-2.083,0.405-4.156,0.822-6.228,1.25c-0.004,1.523-0.003,3.046-0.004,4.569C18.411,47.764,19.495,48.625,20.699,49.297z"/>
</g>
<g>
	<path fill="#FFFFFF" d="M58.705,14.667c1.886-0.215,3.532-1.752,3.882-3.623c0.314-1.473-0.17-3.081-1.239-4.133
		c-0.944-0.971-2.338-1.465-3.685-1.34c-1.744,0.163-3.335,1.385-3.883,3.057c-0.559,1.536-0.188,3.369,0.925,4.565
		C55.686,14.309,57.239,14.882,58.705,14.667z"/>
	<path fill="#FFFFFF" d="M53.038,23.44c0.564,0.316,1.164,0.58,1.789,0.787c1.029,0.342,2.129,0.529,3.272,0.529
		c1.147,0,2.253-0.188,3.288-0.533c0.623-0.209,1.222-0.474,1.786-0.791c0.957-0.538,1.82-1.223,2.559-2.023
		c-0.001-1.22-0.002-2.438-0.01-3.659c-1.651-0.306-3.289-0.665-4.941-0.98c-0.916,1.348-4.448,1.376-5.339,0
		c-1.662,0.323-3.315,0.656-4.97,0.998c-0.001,1.216-0.001,2.432-0.001,3.646C51.212,22.216,52.079,22.902,53.038,23.44z"/>
</g>
</svg>
